<defs>
<font horiz-adv-x="478" ><font-face
    font-family="titillium-regularupright"
    units-per-em="1000"
    panose-1="0 0 5 0 0 0 0 0 0 0"
    ascent="750"
    descent="-250"
    alphabetic="0" />
<missing-glyph horiz-adv-x="223" />
<glyph unicode=" " glyph-name="space" horiz-adv-x="220" />
<glyph unicode="!" glyph-name="exclam" horiz-adv-x="231" d="M80 230L78 700H154L150 230H80ZM78 0V111H154V0H78Z" />
<glyph unicode="&quot;" glyph-name="quotedbl" horiz-adv-x="346" d="M131 466H65L62 694H133L131 466ZM281 466H215L212 694H283L281 466Z" />
<glyph unicode="#" glyph-name="numbersign" horiz-adv-x="560" d="M536 180H425V0H357V180H203V0H135V180H24V244H135V422H24V486H135V666H203V486H357V666H425V486H536V422H425V244H536V180ZM357 244V422H203V244H357Z" />
<glyph unicode="$" glyph-name="dollar" horiz-adv-x="560" d="M461 649L457 591Q403 597 350 601L314 369Q402 346 440 309T478 192Q478 -11 280 -11Q263 -11 254 -10L237 -119H183L200 -6L91 8L95 68Q154 61 210 57L251 311Q163 334 123 372T82 486Q82 669 284
669Q299 669 307 668L325 781H379L360 664L461 649ZM404 185Q404 234 380 259T303 299L264 54H280Q404 54 404 185ZM157 494Q157 444 180 421T262 382L297 604H288Q221 604 189 578T157 494Z" />
<glyph unicode="%" glyph-name="percent" horiz-adv-x="560" d="M112 650T139 650T177 629T189 563Q189 473 139 473T89 564Q89 609 100 629ZM159 6L344 709L398 694L213 -9L159 6ZM29 564Q29 493 58 458T139 422T220 457T249 563Q249 702 139 702T29 564ZM311
142Q311 280 420 280Q530 280 530 141Q530 71 501 36T420 0T340 35T311 142ZM371 142Q371 51 420 51Q448 51 459 73T470 141T459 207T420 228Q394 228 383 208T371 142Z" />
<glyph unicode="&amp;" glyph-name="ampersand" horiz-adv-x="636" d="M290 702Q455 702 455 549Q455 488 425 442T311 359L452 213Q473 266 479 343H548Q546 302 534 250T503 162Q614 51 620 43Q573 -8 571 -8L463 102Q425 43 375 17T253 -10Q145 -10 89 45T33
204Q33 344 180 400Q150 438 140 470T129 548Q129 702 290 702ZM255 56Q359 56 414 147L222 351Q159 327 135 290T111 201Q111 136 147 96T255 56ZM207 544Q207 496 219 470T271 403Q329 428 353 459T377 545Q377 638 290 638Q249 638 228 612T207 544Z" />
<glyph unicode="&apos;" glyph-name="quotesingle" horiz-adv-x="196" d="M131 466H65L62 694H133L131 466Z" />
<glyph unicode="(" glyph-name="parenleft" horiz-adv-x="248" d="M144 748H215Q205 719 190 671T150 503T124 301T147 112T192 -59L215 -124H144Q140 -115 134 -99T111 -35T81 62T58 176T47 301Q47 393 71 505T120 682L144 748Z" />
<glyph unicode=")" glyph-name="parenright" horiz-adv-x="248" d="M104 -118H33Q43 -89 58 -41T98 127T124 329T101 518T56 689L33 754H104Q108 745 114 729T137 665T167 568T190 454T201 329Q201 237 177 125T128 -52L104 -118Z" />
<glyph unicode="*" glyph-name="asterisk" horiz-adv-x="406" d="M366 511H234L275 386L226 371L185 497L77 418L47 458L155 537L49 614L79 656L186 578L227 704L276 688L235 561H366V511Z" />
<glyph unicode="+" glyph-name="plus" horiz-adv-x="560" d="M55 217V285H244V480H314V285H505V217H314V20H244V217H55Z" />
<glyph unicode="," glyph-name="comma" horiz-adv-x="208" d="M94 -130H34L72 111H152L94 -130Z" />
<glyph unicode="-" glyph-name="hyphen" horiz-adv-x="376" d="M63 233V302H314V233H63Z" />
<glyph unicode="." glyph-name="period" horiz-adv-x="201" d="M63 0V111H139V0H63Z" />
<glyph unicode="/" glyph-name="slash" horiz-adv-x="390" d="M98 -10L29 15L293 707L362 682L98 -10Z" />
<glyph unicode="0" glyph-name="zero" horiz-adv-x="560" d="M279 671Q336 671 377 655T450 600T497 492T513 321Q513 160 460 75T280 -10T100 75T46 320Q46 421 62 491T109 599T182 654T279 671ZM361 604T280 604T162 542T124 319Q124 261 130 219T152 137T200
78T280 57Q327 57 358 76T406 132T428 214T435 320Q435 478 398 541Z" />
<glyph unicode="1" glyph-name="one" horiz-adv-x="560" d="M110 521L318 661H388V0H311V571L146 461L110 521Z" />
<glyph unicode="2" glyph-name="two" horiz-adv-x="560" d="M492 0H69V63L266 268Q340 345 368 389T397 486Q397 549 362 576T259 604Q229 604 184 599T109 588L79 582L73 643Q183 671 270 671Q475 671 475 494Q475 423 443 371T338 247L158 67H492V0Z" />
<glyph unicode="3" glyph-name="three" horiz-adv-x="560" d="M79 586L74 644Q180 671 266 671Q375 671 424 629T474 499Q474 396 377 351Q435 330 462 297T490 189Q490 -10 279 -10Q235 -10 182 -4T96 10L64 16L73 75Q170 57 271 57Q412 57 412 186Q412 304 279
309H149V371L278 375Q320 376 358 408T396 491Q396 552 365 578T263 604Q225 604 179 600T106 590L79 586Z" />
<glyph unicode="4" glyph-name="four" horiz-adv-x="560" d="M358 -2V124H47V182L244 661H326L124 190H358V406H434V190H513V124H434V-2H358Z" />
<glyph unicode="5" glyph-name="five" horiz-adv-x="560" d="M96 661H473V593H159L141 373Q223 414 294 414Q500 414 500 218Q500 106 441 49T278 -9Q238 -9 185 -2T99 14L66 21L75 81Q182 58 275 58Q341 58 381 99T422 215Q422 347 284 347Q250 347 211 337T150
316L129 306L76 317L96 661Z" />
<glyph unicode="6" glyph-name="six" horiz-adv-x="560" d="M486 651L478 588Q386 604 308 604Q226 604 183 547T132 370Q227 412 296 412Q400 412 457 363T514 211Q514 102 457 46T292 -10Q174 -10 114 71T54 307Q54 671 308 671Q341 671 385 666T458 656L486
651ZM290 345Q258 345 219 336T156 316L133 307Q132 303 132 292Q132 183 173 120T292 57Q362 57 399 96T436 211Q436 345 290 345Z" />
<glyph unicode="7" glyph-name="seven" horiz-adv-x="560" d="M82 594V661H481V552L231 -13L160 10L404 558V594H82Z" />
<glyph unicode="8" glyph-name="eight" horiz-adv-x="560" d="M278 671Q387 671 450 628T514 499Q514 438 489 405T403 345Q462 322 493 285T524 183Q524 81 457 35T278 -11Q168 -11 102 32T35 172Q35 240 64 278T150 345Q96 372 71 406T46 500Q46 584 108 627T278
671ZM278 56Q446 56 446 187Q446 240 416 265T326 308H225Q170 293 142 264T113 181Q113 116 157 86T278 56ZM279 604Q124 604 124 491Q124 447 149 419T225 373H326Q436 409 436 490Q436 604 279 604Z" />
<glyph unicode="9" glyph-name="nine" horiz-adv-x="560" d="M70 11L78 78Q171 61 249 61Q424 61 425 285Q323 249 257 249Q158 249 102 301T45 455Q45 555 108 613T270 671Q386 671 445 584T504 328Q504 146 438 68T249 -10Q216 -10 172 -5T98 6L70 11ZM263 318Q292
318 332 326T400 342L426 350Q425 468 387 534T270 600Q205 600 165 561T125 455Q125 387 161 353T263 318Z" />
<glyph unicode=":" glyph-name="colon" horiz-adv-x="201" d="M63 327V438H139V327H63ZM63 0V111H139V0H63Z" />
<glyph unicode=";" glyph-name="semicolon" horiz-adv-x="230" d="M44 -130H104L162 111H82L44 -130ZM84 327V438H160V327H84Z" />
<glyph unicode="&lt;" glyph-name="less" horiz-adv-x="560" d="M478 409L139 252L478 92V13L61 218V284L478 487V409Z" />
<glyph unicode="=" glyph-name="equal" horiz-adv-x="560" d="M64 309V378H496V309H64ZM64 124V193H496V124H64Z" />
<glyph unicode="&gt;" glyph-name="greater" horiz-adv-x="560" d="M421 252L82 409V487L499 284V218L82 13V92L421 252Z" />
<glyph unicode="?" glyph-name="question" horiz-adv-x="409" d="M374 534Q374 488 353 451T269 344Q210 279 210 236V196H138Q133 225 133 247Q133 285 150 313T216 397Q264 452 279 477T295 534Q295 592 269 613T180 634Q156 634 121 629T62 619L39 614L30 675Q126
702 186 702Q284 702 329 664T374 534ZM132 1V117H210V1H132Z" />
<glyph unicode="@" glyph-name="at" horiz-adv-x="921" d="M475 715Q701 715 792 609T883 265Q883 -5 707 -5Q650 -5 622 16T581 93Q564 63 521 29T425 -5Q339 -5 301 57T263 240Q263 371 306 438T463 505Q488 505 533 501T612 492L644 488V131Q644 93 658 76T707
59Q756 59 784 104T813 265Q813 371 798 440T745 558T642 629T475 651Q285 651 201 561T116 261Q116 53 196 -43T471 -139L606 -129L608 -194Q516 -203 471 -203Q242 -203 144 -91T45 261Q45 504 148 609T475 715ZM438 59Q472 59 504 85T553 138L569 164V431L548
434Q527 436 502 438T466 441Q426 441 400 427T362 384T345 324T340 247Q340 153 361 106T438 59Z" />
<glyph unicode="A" glyph-name="A" horiz-adv-x="553" d="M22 0L201 692H352L530 0H454L406 176H147L99 0H22ZM262 624L162 244H390L291 624H262Z" />
<glyph unicode="B" glyph-name="B" horiz-adv-x="570" d="M77 692H306Q503 692 503 519Q503 399 415 359Q473 338 498 300T523 197Q523 95 471 48T312 0H77V692ZM308 320H153V67H311Q379 67 411 99T443 201Q443 263 410 291T308 320ZM306 625H153V386H307Q366
386 395 420T424 512Q424 625 306 625Z" />
<glyph unicode="C" glyph-name="C" horiz-adv-x="501" d="M459 75L463 11Q367 -10 288 -10Q218 -10 171 13T99 86T63 196T53 345Q53 525 105 613T288 702Q325 702 369 697T438 686L464 681L459 617Q365 634 298 634Q201 634 167 563T132 345Q132 289 136 248T150
170T179 109T228 72T299 58Q326 58 366 62T432 70L459 75Z" />
<glyph unicode="D" glyph-name="D" horiz-adv-x="599" d="M306 0H77V692H306Q440 692 493 614T546 359Q546 172 494 86T306 0ZM466 359Q466 502 433 563T306 624H153V68H306Q399 68 432 139T466 359Z" />
<glyph unicode="E" glyph-name="E" horiz-adv-x="507" d="M77 0V692H464V624H153V386H408V318H153V68H464V0H77Z" />
<glyph unicode="F" glyph-name="F" horiz-adv-x="487" d="M77 0V692H465V624H153V351H409V284H153V0H77Z" />
<glyph unicode="G" glyph-name="G" horiz-adv-x="574" d="M332 295V361H514V12Q377 -10 302 -10Q52 -10 52 347Q52 433 63 494T102 605T181 678T306 702Q353 702 405 696T486 682L514 676L510 615Q394 634 311 634Q265 634 232 620T179 581T149 518T135 441T131
347Q131 284 139 236T166 145T221 81T310 58Q332 58 364 61T416 68L437 71V295H332Z" />
<glyph unicode="H" glyph-name="H" horiz-adv-x="620" d="M466 0V316H153V0H77V692H153V383H466V692H543V0H466Z" />
<glyph unicode="I" glyph-name="I" horiz-adv-x="230" d="M77 0V692H153V0H77Z" />
<glyph unicode="J" glyph-name="J" horiz-adv-x="268" d="M194 692L195 114Q195 57 190 26T165 -29T112 -61T17 -70V-2Q85 -2 101 21T118 120V692H194Z" />
<glyph unicode="K" glyph-name="K" horiz-adv-x="525" d="M425 0L248 308L153 305V0H77V692H153V372L247 376L414 692H500L313 350L511 0H425Z" />
<glyph unicode="L" glyph-name="L" horiz-adv-x="438" d="M426 0H77V692H153V68H426V0Z" />
<glyph unicode="M" glyph-name="M" horiz-adv-x="776" d="M77 0V692H212L388 98L565 692H699V0H626V624H612L435 25H340L164 624H149V0H77Z" />
<glyph unicode="N" glyph-name="N" horiz-adv-x="629" d="M77 0V692H211L460 79H478V692H552V0H420L170 616H153V0H77Z" />
<glyph unicode="O" glyph-name="O" horiz-adv-x="612" d="M306 58Q363 58 396 75Q446 100 462 163T479 352Q479 514 447 574T306 634Q250 634 218 620Q166 598 150 538T133 352Q133 286 136 243T150 162T179 103T230 70T306 58ZM306 -10Q159 -10 106 74T53 352Q53
482 75 557T153 667Q207 702 306 702Q454 702 506 623T559 352Q559 216 536 137T451 22Q399 -10 306 -10Z" />
<glyph unicode="P" glyph-name="P" horiz-adv-x="548" d="M296 228H153V0H77V692H296Q407 692 461 639T516 468Q516 228 296 228ZM153 297H292Q365 297 400 337T436 470Q436 555 401 589T292 624H153V297Z" />
<glyph unicode="Q" glyph-name="Q" horiz-adv-x="612" d="M306 -10Q159 -10 106 74T53 352Q53 482 75 557T153 667Q207 702 306 702Q454 702 506 623T559 352Q559 217 537 139T455 24L533 -104L467 -143L388 -2Q350 -10 306 -10ZM306 58Q363 58 396 75Q446 100
462 163T479 352Q479 514 447 574T306 634Q250 634 218 620Q166 598 150 538T133 352Q133 286 136 243T150 162T179 103T230 70T306 58Z" />
<glyph unicode="R" glyph-name="R" horiz-adv-x="566" d="M447 0L323 265H153V0H77V692H305Q513 692 513 482Q513 321 398 280L530 0H447ZM434 482Q434 555 403 590T305 625H153V332H305Q371 332 402 369T434 482Z" />
<glyph unicode="S" glyph-name="S" horiz-adv-x="500" d="M440 681L436 620Q326 634 259 634Q189 634 156 607T122 518Q122 459 153 436T272 391Q373 366 415 328T458 202Q458 -10 250 -10Q215 -10 166 -5T84 4L52 9L57 72Q184 58 250 58Q380 58 380 195Q380 254
349 280T240 323Q136 347 90 387T43 510Q43 702 255 702Q290 702 336 697T412 686L440 681Z" />
<glyph unicode="T" glyph-name="T" horiz-adv-x="471" d="M12 624V692H459V624H276V0H199V624H12Z" />
<glyph unicode="U" glyph-name="U" horiz-adv-x="597" d="M149 692V206Q149 127 185 93T298 58Q376 58 411 92T447 206V692H524V211Q524 97 469 44T298 -10Q183 -10 128 43T73 211V692H149Z" />
<glyph unicode="V" glyph-name="V" horiz-adv-x="543" d="M443 692H520L352 0H191L22 692H99L250 68H294L443 692Z" />
<glyph unicode="W" glyph-name="W" horiz-adv-x="831" d="M30 692H104L223 71H249L373 682H456L583 71H609L725 692H800L666 0H530L414 583L301 0H166L30 692Z" />
<glyph unicode="X" glyph-name="X" horiz-adv-x="518" d="M102 692L259 403L416 692H499L307 345L502 0H418L260 289L99 0H16L214 344L18 692H102Z" />
<glyph unicode="Y" glyph-name="Y" horiz-adv-x="498" d="M486 692L286 290V0H213V290L10 692H93L249 373L404 692H486Z" />
<glyph unicode="Z" glyph-name="Z" horiz-adv-x="495" d="M40 624V692H455V596L125 91V67H455V-1H40V95L369 599V624H40Z" />
<glyph unicode="[" glyph-name="bracketleft" horiz-adv-x="308" d="M72 747H270V682H144V-57H270V-122H72V747Z" />
<glyph unicode="\" glyph-name="backslash" horiz-adv-x="451" d="M421 -16L345 -24L29 693L106 701L421 -16Z" />
<glyph unicode="]" glyph-name="bracketright" horiz-adv-x="308" d="M236 -122H38V-57H164V682H38V747H236V-122Z" />
<glyph unicode="^" glyph-name="asciicircum" horiz-adv-x="560" d="M417 319L273 586L133 319H53L238 660H306L497 319H417Z" />
<glyph unicode="_" glyph-name="underscore" horiz-adv-x="627" d="M90 -79H538V-152H90V-79Z" />
<glyph unicode="`" glyph-name="grave" horiz-adv-x="518" d="M144 747L350 653L330 599L121 685L144 747Z" />
<glyph unicode="a" glyph-name="a" horiz-adv-x="493" d="M207 -10Q120 -10 84 51T47 240Q47 290 52 329T70 403T106 461T164 497T247 510Q272 510 317 506T394 498L427 493V123L433 1L358 -2Q353 44 353 84Q351 80 347 74T328 52T298 23T258 0T207 -10ZM256 445Q179
445 151 396T123 240Q123 149 144 102T222 55Q256 55 288 81T336 133L352 159V436Q283 445 256 445Z" />
<glyph unicode="b" glyph-name="b" horiz-adv-x="494" d="M284 510Q374 510 410 447T447 260Q447 119 398 55T237 -10Q210 -10 168 -7T96 -2L66 1V718H141V440Q148 448 161 459T212 490T284 510ZM240 55Q315 55 343 103T371 260Q371 349 349 397T271 445Q252 445
232 438T196 420T167 400T148 382L141 374V62Q216 55 240 55Z" />
<glyph unicode="c" glyph-name="c" horiz-adv-x="399" d="M241 510Q264 510 294 506T343 498L362 495L359 435Q292 444 256 444Q181 444 152 400T123 257Q123 152 149 104T256 55L359 63L362 4Q291 -10 240 -10Q128 -10 87 54T46 257Q46 389 92 449T241 510Z" />
<glyph unicode="d" glyph-name="d" horiz-adv-x="493" d="M427 718V0H354L353 73Q351 70 347 64T328 44T297 19T256 -1T205 -10Q120 -10 84 54T47 243Q47 377 92 443T241 510Q264 510 291 507T336 500L352 497V718H427ZM352 150V434Q295 445 248 445Q178 445 151
395T123 243Q123 153 144 104T225 55Q245 55 266 65T301 89T328 116T346 140L352 150Z" />
<glyph unicode="e" glyph-name="e" horiz-adv-x="453" d="M238 55Q270 55 308 59T370 69L393 74L397 19Q325 -9 234 -9Q135 -9 90 50T45 242Q45 509 248 509Q415 509 415 375Q415 288 359 256T173 223H121V208Q121 55 238 55ZM122 281H172Q266 281 303 300T341
374Q341 447 248 447Q124 447 122 281Z" />
<glyph unicode="f" glyph-name="f" horiz-adv-x="310" d="M161 435V0L154 -222H86V435H29V500H86V543Q86 643 116 685T213 728Q227 728 249 726T286 720L301 718L300 656Q255 663 226 663Q189 663 175 635T161 542V500H292V435H161Z" />
<glyph unicode="g" glyph-name="g" horiz-adv-x="470" d="M235 -235Q139 -235 90 -206T40 -100Q40 -58 66 -20T132 43Q107 64 107 103Q107 118 115 138T131 170L139 183Q47 217 47 338Q47 420 91 465T218 510Q237 510 259 507T294 500L306 497L449 499V437H361Q395
405 395 338Q395 256 349 213T217 169L193 171Q176 134 176 112Q176 93 192 84T264 74Q357 74 402 46T447 -63Q447 -140 388 -187T235 -235ZM260 9Q210 9 179 16Q153 2 132 -27T111 -88Q111 -135 142 -153T238 -171Q301 -171 338 -143T375 -63Q375 -19 348 -5T260
9ZM217 234Q324 234 324 338Q324 447 218 447Q118 447 118 338Q118 234 217 234Z" />
<glyph unicode="h" glyph-name="h" horiz-adv-x="501" d="M141 0H66V718H141V426Q143 429 148 435T168 455T199 481T238 501T286 510Q439 510 439 312V0H365V290Q365 371 343 408T271 445Q252 445 232 436T197 413T168 387T148 364L141 354V0Z" />
<glyph unicode="i" glyph-name="i" horiz-adv-x="207" d="M66 0V500H141V0H66ZM65 605V694H142V605H65Z" />
<glyph unicode="j" glyph-name="j" horiz-adv-x="207" d="M66 0V500H141V0Q141 -54 138 -82T116 -137T70 -184T-17 -235L-46 -177Q33 -129 49 -102T66 0ZM66 605V695H142V605H66Z" />
<glyph unicode="k" glyph-name="k" horiz-adv-x="453" d="M141 0H66V718H141V294L205 297L347 500H431L268 270L434 0H350L206 233L141 229V0Z" />
<glyph unicode="l" glyph-name="l" horiz-adv-x="215" d="M70 0V718H145V0H70Z" />
<glyph unicode="m" glyph-name="m" horiz-adv-x="778" d="M434 0H359V284Q359 369 338 407T269 445Q241 445 209 422T159 375L141 352V0H66V500H140L141 425Q144 428 148 434T168 454T199 480T238 501T284 510Q313 510 337 501T374 480T397 455T410 433L413 424Q421
434 434 448T486 486T563 510Q716 510 716 300V0H642V290Q642 372 621 408T548 445Q519 445 490 426T445 386L430 366Q434 332 434 294V0Z" />
<glyph unicode="n" glyph-name="n" horiz-adv-x="501" d="M141 0H66V500H140L141 425Q143 428 148 434T168 454T199 480T238 501T286 510Q439 510 439 311V0H365V290Q365 371 343 408T271 445Q241 445 209 422T158 375L141 352V0Z" />
<glyph unicode="o" glyph-name="o" horiz-adv-x="486" d="M133 510T243 510T396 447T439 255Q439 203 435 166T419 94T386 38T329 3T243 -10T157 3T100 37T67 94T51 166T47 255Q47 383 90 446ZM210 55T243 55T299 64T336 89T356 132T365 186T367 255Q367 355 341
400T243 445T146 400T119 255Q119 213 121 187T130 133T150 90T186 65Z" />
<glyph unicode="p" glyph-name="p" horiz-adv-x="492" d="M66 -222V500H140L141 426Q147 435 158 449T206 486T280 510Q372 510 409 446T446 256Q446 123 401 57T249 -10Q227 -10 200 -7T157 0L141 3V-222H66ZM271 445Q239 445 207 422T158 374L141 350V65Q197
55 242 55Q314 55 342 104T370 256Q370 346 349 395T271 445Z" />
<glyph unicode="q" glyph-name="q" horiz-adv-x="492" d="M209 -10Q162 -10 130 9T80 63T55 142T47 243Q47 381 94 445T250 510Q274 510 318 506T394 498L426 493V-216H352V71Q350 68 346 63T328 43T299 19T259 -1T209 -10ZM258 445Q184 445 154 400T123 243Q123
148 144 102T225 55Q255 55 287 78T336 125L352 148V435Q287 445 258 445Z" />
<glyph unicode="r" glyph-name="r" horiz-adv-x="314" d="M66 0V500H141V424Q149 431 163 442T218 477T297 510V431Q265 423 226 406T164 374L141 360V0H66Z" />
<glyph unicode="s" glyph-name="s" horiz-adv-x="427" d="M372 493L369 433Q275 445 209 445Q170 445 144 427T118 369Q118 331 141 315T223 288Q261 280 280 275T324 259T360 235T379 200T388 147Q388 60 342 25T207 -10Q177 -10 136 -5T70 5L44 10L49 71Q153
55 201 55Q260 55 286 74T313 140Q313 157 308 169T295 189T270 203T241 212T202 220Q119 237 81 266T43 363Q43 439 90 474T206 510Q243 510 284 506T349 498L372 493Z" />
<glyph unicode="t" glyph-name="t" horiz-adv-x="324" d="M305 435H164V145Q164 55 229 55L308 61L312 2Q254 -10 220 -10Q148 -10 119 27T90 141V435H25V500H90V648H164V500H305V435Z" />
<glyph unicode="u" glyph-name="u" horiz-adv-x="502" d="M361 500H435V0H362L361 75Q359 72 354 66T334 46T303 20T264 -1T216 -10Q135 -10 99 40T62 193V500H137V210Q137 128 158 92T231 55Q261 55 293 78T344 125L361 148V500Z" />
<glyph unicode="v" glyph-name="v" horiz-adv-x="447" d="M22 500H98L208 64H239L349 500H425L292 0H155L22 500Z" />
<glyph unicode="w" glyph-name="w" horiz-adv-x="728" d="M29 500H104L197 65H217L324 490H404L510 65H531L623 500H698L591 0H459L364 389L269 0H137L29 500Z" />
<glyph unicode="x" glyph-name="x" horiz-adv-x="417" d="M21 500H99L210 303L320 500H396L250 249L396 0H319L208 194L97 0H21L167 248L21 500Z" />
<glyph unicode="y" glyph-name="y" horiz-adv-x="448" d="M24 500H98L208 64H239L351 500H425L233 -222H161L224 0H155L24 500Z" />
<glyph unicode="z" glyph-name="z" horiz-adv-x="421" d="M38 435V500H383V437L122 65H383V0H38V64L299 435H38Z" />
<glyph unicode="{" glyph-name="braceleft" horiz-adv-x="332" d="M193 177Q193 162 190 108T186 36Q186 -57 294 -59L293 -127Q111 -123 111 37Q111 54 114 105T118 172Q118 198 110 217T87 247T60 265T30 277Q26 278 24 279V342Q60 350 89 375T118 445Q118 464
115 511T111 576Q111 668 154 709T293 753L294 685Q231 684 209 660T186 580Q186 573 189 516T193 450Q193 389 173 360T104 312Q193 279 193 177Z" />
<glyph unicode="|" glyph-name="bar" horiz-adv-x="217" d="M71 -222V718H146V-222H71Z" />
<glyph unicode="}" glyph-name="braceright" horiz-adv-x="332" d="M139 448Q139 463 142 517T146 589Q146 682 38 684L39 752Q221 748 221 588Q221 571 218 520T214 453Q214 427 222 408T245 378T272 360T302 348Q306 347 308 346V283Q272 275 243 250T214 180Q214
161 217 114T221 49Q221 -43 178 -84T39 -128L38 -60Q101 -59 123 -35T146 45Q146 52 143 109T139 175Q139 236 159 265T228 313Q139 346 139 448Z" />
<glyph unicode="~" glyph-name="asciitilde" horiz-adv-x="560" d="M484 310L494 249Q487 243 476 234T436 210T382 195Q352 195 277 226T182 257Q164 257 138 246T94 222L77 210L66 272Q129 325 183 325Q212 325 286 295T382 264Q398 264 423 275T466 298L484 310Z" />
<glyph unicode="&#xa1;" glyph-name="exclamdown" horiz-adv-x="214" d="M142 270L144 -200H68L72 270H142ZM144 500V389H68V500H144Z" />
<glyph unicode="&#xa2;" glyph-name="cent" horiz-adv-x="560" d="M278 -80V37Q109 41 109 248Q109 452 278 463V582H340V461L435 451L432 384Q346 392 310 392Q241 392 213 359T185 248Q185 174 211 141T316 107L433 114L436 50Q380 42 341 39V-80H278Z" />
<glyph unicode="&#xa3;" glyph-name="sterling" horiz-adv-x="560" d="M450 662L448 602Q363 612 322 612Q301 612 287 604T265 586T253 553T249 515T248 467V421H437V356H248V65H391L465 81L476 18L400 0H78V65H171V356H96V421H171V472Q171 524 176 557T195 621T239
665T314 679Q332 679 366 675T425 666L450 662Z" />
<glyph unicode="&#xa4;" glyph-name="currency" horiz-adv-x="560" d="M449 30L379 100Q334 71 280 71T181 100L111 30L58 83L128 153Q99 198 99 252T128 351L58 421L111 474L181 403Q226 432 280 432T379 403L449 474L502 421L431 351Q460 306 460 252T431 153L502
83L449 30ZM170 206T202 174T280 142T358 174T390 252T358 330T280 362T202 330T170 252Z" />
<glyph unicode="&#xa5;" glyph-name="yen" horiz-adv-x="560" d="M71 309V377H193L27 661H112L281 373L447 661H533L368 377H489V309H329L319 294V227H489V159H319V0H243V159H71V227H243V294L234 309H71Z" />
<glyph unicode="&#xa6;" glyph-name="brokenbar" horiz-adv-x="221" d="M73 718H148V344H73V718ZM73 156H148V-222H73V156Z" />
<glyph unicode="&#xa7;" glyph-name="section" horiz-adv-x="465" d="M395 633L392 567Q289 581 244 581Q128 581 128 495Q128 448 155 430T263 394Q341 378 378 348T415 249Q415 214 401 176T375 119Q408 91 408 20Q408 -148 229 -148Q202 -148 161 -144T91 -136L63
-132L70 -66Q173 -80 225 -80Q340 -80 340 16Q340 34 334 47T319 68T290 84T253 95T204 106Q120 122 83 153T46 255Q46 315 99 379Q76 400 67 423T57 490Q57 565 103 607T241 650Q269 650 307 646T370 638L395 633ZM245 327Q154 350 148 353Q117 301 117 266Q117
224 141 206T223 176Q292 163 319 148Q324 155 333 183T343 240Q343 284 319 300T245 327Z" />
<glyph unicode="&#xa8;" glyph-name="dieresis" horiz-adv-x="680" d="M95 620V713H157V620H95ZM278 620V713H338V620H278Z" />
<glyph unicode="&#xa9;" glyph-name="copyright" horiz-adv-x="632" d="M52 434Q52 550 127 628T316 707Q430 707 504 628T579 434Q579 318 505 240T315 161Q203 161 128 240T52 434ZM96 530T96 434T158 272T315 205T472 271T535 434T472 597T315 664Q222 664
159 597ZM394 340L397 288Q360 276 319 276Q254 276 228 313T202 435Q202 516 228 553T321 591Q340 591 359 589T388 584L397 581L394 528Q355 534 323 534Q286 534 275 512T263 435Q263 382 276 358T323 333L394 340Z" />
<glyph unicode="&#xaa;" glyph-name="ordfeminine" horiz-adv-x="377" d="M298 560V423Q307 412 328 406L326 357Q288 357 272 363T242 383Q188 357 135 357Q95 357 73 382T50 449Q50 529 146 535L234 541V563Q234 603 185 603L70 596L68 644Q137 659 188 659Q244
659 271 637T298 560ZM234 495L157 490Q135 488 126 479T116 450Q116 411 152 411Q168 411 188 415T222 424L234 428V495Z" />
<glyph unicode="&#xab;" glyph-name="guillemotleft" horiz-adv-x="499" d="M332 409V341L214 249L332 148V79L320 89V79L142 229V267L320 409V399L332 409Z" />
<glyph unicode="&#xac;" glyph-name="logicalnot" horiz-adv-x="560" d="M65 342H493V117H423V274H65V342Z" />
<glyph unicode="&#xae;" glyph-name="registered" horiz-adv-x="632" d="M52 434Q52 550 127 628T315 707Q430 707 504 628T579 434Q579 318 505 240T315 161Q203 161 128 240T52 434ZM96 529T96 434T159 272T315 205Q409 205 472 271T535 434T472 597T315 664Q222
664 159 597ZM373 282L324 389H264V282H206V585H316Q373 585 401 563T430 490Q430 453 419 432T379 397L435 282H373ZM263 538V436H323Q349 436 361 448T373 487Q373 538 311 538H263Z" />
<glyph unicode="&#xaf;" glyph-name="overscore" horiz-adv-x="439" d="M78 639V698H352V639H78Z" />
<glyph unicode="0;" glyph-name="degree" horiz-adv-x="560" d="M138 498T138 561T177 663T280 702T382 663T422 561T383 459T280 420T178 459ZM189 561Q189 519 214 494T280 468T347 493T373 561Q373 602 347 628T280 654T214 628T189 561Z" />
<glyph unicode="1;" glyph-name="plusminus" horiz-adv-x="560" d="M55 293V361H244V487H314V361H505V293H314V166H244V293H55ZM55 106H505V38H55V106Z" />
<glyph unicode="2;" glyph-name="twosuperior" horiz-adv-x="280" d="M240 478H31V534L119 620Q169 668 169 703Q169 739 120 739Q107 739 86 737T50 732L36 729L33 788Q93 800 136 800Q188 800 212 778T236 709Q236 652 174 596L114 536H240V478Z" />
<glyph unicode="3;" glyph-name="threesuperior" horiz-adv-x="280" d="M34 790Q93 800 136 800Q242 800 242 716Q242 670 202 641Q227 633 238 617T250 565Q250 468 143 468Q121 468 93 470T48 476L30 478L34 534Q91 527 134 527Q184 527 184 568Q184 610
137 610H72V664H137Q151 664 163 677T175 708Q175 741 130 741L38 734L34 790Z" />
<glyph unicode="4;" glyph-name="acute" horiz-adv-x="546" d="M139 596L118 652L324 748L347 682L139 596Z" />
<glyph unicode="5;" glyph-name="mu" horiz-adv-x="560" d="M93 -222V500H168V210Q168 128 189 92T262 55Q292 55 324 78T374 125L392 148V500H466V0H393L392 75Q390 72 385 66T365 46T334 20T295 -1T247 -10Q200 -10 168 7V-222H93Z" />
<glyph unicode="6;" glyph-name="paragraph" horiz-adv-x="554" d="M386 0V636H276V0H212V332Q133 332 83 381T32 501Q32 590 75 645T207 700H517V636H449V0H386Z" />
<glyph unicode="7;" glyph-name="middot" horiz-adv-x="202" d="M63 245V362H140V245H63Z" />
<glyph unicode="8;" glyph-name="cedilla" horiz-adv-x="791" d="M531 -124Q531 -168 507 -189T442 -211Q424 -211 404 -210T372 -206L361 -204L364 -153Q401 -156 426 -156Q468 -156 468 -120Q468 -88 426 -88H386V5H425V-45H433Q531 -45 531 -124Z" />
<glyph unicode="9;" glyph-name="onesuperior" horiz-adv-x="280" d="M33 720L134 790H194V478H130V720L62 673L33 720Z" />
<glyph unicode="a;" glyph-name="ordmasculine" horiz-adv-x="361" d="M180 659Q270 659 297 596Q312 561 312 509Q312 355 180 355Q71 355 53 460Q49 480 49 509Q49 659 180 659ZM180 415Q218 415 233 435T248 509Q248 525 246 545Q241 575 226 587T180 599Q143
599 128 579T113 509Q113 501 116 471Q121 440 136 428T180 415Z" />
<glyph unicode="b;" glyph-name="guillemotright" horiz-adv-x="507" d="M174 84V152L292 244L174 345V414L179 410V414L357 264V226L179 84V88L174 84Z" />
<glyph unicode="c;" glyph-name="onequarter" horiz-adv-x="566" d="M18 720L119 790H179V478H115V720L47 673L18 720ZM158 -10L89 15L353 707L422 682L158 -10ZM448 0V48H307V103L376 312H446L373 107H448L453 195H511V107H538V48H511V0H448Z" />
<glyph unicode="d;" glyph-name="onehalf" horiz-adv-x="589" d="M18 720L119 790H179V478H115V720L47 673L18 720ZM158 -10L89 15L353 707L422 682L158 -10ZM552 0H343V56L431 142Q481 190 481 225Q481 261 432 261Q419 261 398 259T362 254L348 251L345
310Q405 322 448 322Q500 322 524 300T548 231Q548 174 486 118L426 58H552V0Z" />
<glyph unicode="e;" glyph-name="threequarters" horiz-adv-x="589" d="M41 790Q100 800 143 800Q249 800 249 716Q249 670 209 641Q234 633 245 617T257 565Q257 468 150 468Q128 468 100 470T54 476L37 478L41 534Q98 527 141 527Q191 527 191 568Q191 610
144 610H79V664H144Q158 664 170 677T182 708Q182 741 137 741L45 734L41 790ZM183 -10L114 15L378 707L447 682L183 -10ZM473 0V48H332V103L401 312H471L398 107H473L478 195H536V107H563V48H536V0H473Z" />
<glyph unicode="f;" glyph-name="questiondown" horiz-adv-x="404" d="M32 -33Q32 13 53 50T137 157Q196 222 196 265V305H268Q273 276 273 254Q273 216 256 188T190 104Q142 49 127 24T111 -33Q111 -91 137 -112T226 -133Q250 -133 285 -128T344 -118L367
-113L376 -174Q280 -201 220 -201Q122 -201 77 -163T32 -33ZM274 500V384H196V500H274Z" />
<glyph unicode="0;" glyph-name="Agrave" horiz-adv-x="553" d="M156 931L362 837L340 780L132 866L156 931ZM22 0L201 692H352L530 0H454L406 176H147L99 0H22ZM262 624L162 244H390L291 624H262Z" />
<glyph unicode="1;" glyph-name="Aacute" horiz-adv-x="553" d="M213 785L191 840L397 936L421 871L213 785ZM22 0L201 692H352L530 0H454L406 176H147L99 0H22ZM262 624L162 244H390L291 624H262Z" />
<glyph unicode="2;" glyph-name="Acircumflex" horiz-adv-x="553" d="M122 793L253 931H294L426 793H353L274 874L195 793H122ZM22 0L201 692H352L530 0H454L406 176H147L99 0H22ZM262 624L162 244H390L291 624H262Z" />
<glyph unicode="3;" glyph-name="Atilde" horiz-adv-x="553" d="M429 915L445 864Q392 804 358 804Q335 804 277 832T204 860Q194 860 175 848T142 824L128 812L114 864Q168 925 206 925Q232 925 289 898T358 870Q367 870 384 881T416 904L429 915ZM22 0L201
692H352L530 0H454L406 176H147L99 0H22ZM262 624L162 244H390L291 624H262Z" />
<glyph unicode="4;" glyph-name="Adieresis" horiz-adv-x="553" d="M153 814V907H214V814H153ZM341 814V907H401V814H341ZM22 0L201 692H352L530 0H454L406 176H147L99 0H22ZM262 624L162 244H390L291 624H262Z" />
<glyph unicode="5;" glyph-name="Aring" horiz-adv-x="553" d="M22 0L195 671Q173 696 173 740Q173 790 201 815T278 840Q325 840 353 815T382 740Q382 696 357 669L530 0H454L406 176H147L99 0H22ZM262 624L162 244H390L291 624H262ZM223 740Q223 694 273
692H278Q331 692 331 740T278 788Q223 788 223 740Z" />
<glyph unicode="6;" glyph-name="AE" horiz-adv-x="775" d="M345 0V177H142L95 0H22L202 696H733V624H417V386H676V317H417V72H733V0H345ZM256 624L158 248H345V624H256Z" />
<glyph unicode="7;" glyph-name="Ccedilla" horiz-adv-x="501" d="M459 75L463 11Q370 -9 292 -10V-45H300Q398 -45 398 -124Q398 -168 374 -189T309 -211Q291 -211 271 -210T239 -206L228 -204L231 -153Q268 -156 293 -156Q335 -156 335 -120Q335 -88 293
-88H253V-8Q194 -2 154 24T92 98T62 204T53 345Q53 525 105 613T288 702Q325 702 369 697T438 686L464 681L459 617Q365 634 298 634Q201 634 167 563T132 345Q132 289 136 248T150 170T179 109T228 72T299 58Q326 58 366 62T432 70L459 75Z" />
<glyph unicode="8;" glyph-name="Egrave" horiz-adv-x="507" d="M157 931L363 837L341 780L133 866L157 931ZM77 0V692H464V624H153V386H408V318H153V68H464V0H77Z" />
<glyph unicode="9;" glyph-name="Eacute" horiz-adv-x="507" d="M192 785L170 840L376 936L400 871L192 785ZM77 0V692H464V624H153V386H408V318H153V68H464V0H77Z" />
<glyph unicode="a;" glyph-name="Ecircumflex" horiz-adv-x="507" d="M118 794L249 932H290L422 794H349L270 875L191 794H118ZM77 0V692H464V624H153V386H408V318H153V68H464V0H77Z" />
<glyph unicode="b;" glyph-name="Edieresis" horiz-adv-x="507" d="M154 814V907H215V814H154ZM342 814V907H402V814H342ZM77 0V692H464V624H153V386H408V318H153V68H464V0H77Z" />
<glyph unicode="c;" glyph-name="Igrave" horiz-adv-x="230" d="M-27 931L179 837L157 780L-51 866L-27 931ZM77 0V692H153V0H77Z" />
<glyph unicode="d;" glyph-name="Iacute" horiz-adv-x="230" d="M67 785L45 840L251 936L275 871L67 785ZM77 0V692H153V0H77Z" />
<glyph unicode="e;" glyph-name="Icircumflex" horiz-adv-x="230" d="M-38 791L93 929H134L266 791H193L114 872L35 791H-38ZM77 0V692H153V0H77Z" />
<glyph unicode="f;" glyph-name="Idieresis" horiz-adv-x="230" d="M-9 819V912H52V819H-9ZM179 819V912H239V819H179ZM77 0V692H153V0H77Z" />
<glyph unicode="&#xd0;" glyph-name="Eth" horiz-adv-x="604" d="M310 0H81V309H16V386H81V692H310Q444 692 497 614T550 359Q550 172 498 86T310 0ZM470 359Q470 502 437 563T310 624H157V386H301V309H157V68H310Q403 68 436 139T470 359Z" />
<glyph unicode="&#xd1;" glyph-name="Ntilde" horiz-adv-x="629" d="M466 913L482 862Q429 802 395 802Q372 802 314 830T241 858Q231 858 212 846T179 822L165 810L151 862Q205 923 243 923Q270 923 327 896T395 868Q404 868 421 879T452 902L466 913ZM77 0V692H211L460
79H478V692H552V0H420L170 616H153V0H77Z" />
<glyph unicode="&#xd2;" glyph-name="Ograve" horiz-adv-x="612" d="M196 931L402 837L380 780L172 866L196 931ZM306 58Q363 58 396 75Q446 100 462 163T479 352Q479 514 447 574T306 634Q250 634 218 620Q166 598 150 538T133 352Q133 286 136 243T150 162T179
103T230 70T306 58ZM306 -10Q159 -10 106 74T53 352Q53 482 75 557T153 667Q207 702 306 702Q454 702 506 623T559 352Q559 216 536 137T451 22Q399 -10 306 -10Z" />
<glyph unicode="&#xd3;" glyph-name="Oacute" horiz-adv-x="612" d="M306 58Q363 58 396 75Q446 100 462 163T479 352Q479 514 447 574T306 634Q250 634 218 620Q166 598 150 538T133 352Q133 286 136 243T150 162T179 103T230 70T306 58ZM306 -10Q159 -10 106
74T53 352Q53 482 75 557T153 667Q207 702 306 702Q454 702 506 623T559 352Q559 216 536 137T451 22Q399 -10 306 -10ZM235 785L213 840L419 936L443 871L235 785Z" />
<glyph unicode="&#xd4;" glyph-name="Ocircumflex" horiz-adv-x="612" d="M306 58Q363 58 396 75Q446 100 462 163T479 352Q479 514 447 574T306 634Q250 634 218 620Q166 598 150 538T133 352Q133 286 136 243T150 162T179 103T230 70T306 58ZM306 -10Q159 -10
106 74T53 352Q53 482 75 557T153 667Q207 702 306 702Q454 702 506 623T559 352Q559 216 536 137T451 22Q399 -10 306 -10ZM154 793L285 931H326L458 793H385L306 874L227 793H154Z" />
<glyph unicode="&#xd5;" glyph-name="Otilde" horiz-adv-x="612" d="M460 913L476 862Q423 802 389 802Q366 802 308 830T235 858Q225 858 206 846T173 822L159 810L145 862Q199 923 237 923Q264 923 321 896T389 868Q398 868 415 879T446 902L460 913ZM306 58Q363
58 396 75Q446 100 462 163T479 352Q479 514 447 574T306 634Q250 634 218 620Q166 598 150 538T133 352Q133 286 136 243T150 162T179 103T230 70T306 58ZM306 -10Q159 -10 106 74T53 352Q53 482 75 557T153 667Q207 702 306 702Q454 702 506 623T559 352Q559
216 536 137T451 22Q399 -10 306 -10Z" />
<glyph unicode="&#xd6;" glyph-name="Odieresis" horiz-adv-x="612" d="M178 816V909H247V816H178ZM367 816V909H435V816H367ZM306 58Q363 58 396 75Q446 100 462 163T479 352Q479 514 447 574T306 634Q250 634 218 620Q166 598 150 538T133 352Q133 286 136 243T150
162T179 103T230 70T306 58ZM306 -10Q159 -10 106 74T53 352Q53 482 75 557T153 667Q207 702 306 702Q454 702 506 623T559 352Q559 216 536 137T451 22Q399 -10 306 -10Z" />
<glyph unicode="&#xd7;" glyph-name="multiply" horiz-adv-x="560" d="M120 459L280 297L441 460L489 412L326 251L489 90L441 42L280 204L119 42L71 90L233 251L71 411L120 459Z" />
<glyph unicode="&#xd8;" glyph-name="Oslash" horiz-adv-x="612" d="M136 -114L87 -91L142 35Q92 74 73 150T53 352Q53 482 75 557T153 667Q207 702 306 702Q378 702 429 682L480 797L531 777L476 655Q522 617 540 544T559 352Q559 216 536 137T451 22Q399 -10
306 -10Q236 -10 190 8L136 -114ZM175 108L283 353L400 617Q363 634 306 634Q250 634 218 620Q166 598 150 538T133 352Q133 256 141 199T175 108ZM306 58Q363 58 396 75Q446 100 462 163T479 352Q479 523 443 579L333 330L219 73Q252 58 306 58Z" />
<glyph unicode="&#xd9;" glyph-name="Ugrave" horiz-adv-x="597" d="M149 692V206Q149 127 185 93T298 58Q376 58 411 92T447 206V692H524V211Q524 97 469 44T298 -10Q183 -10 128 43T73 211V692H149ZM192 931L398 837L376 780L168 866L192 931Z" />
<glyph unicode="&#xda;" glyph-name="Uacute" horiz-adv-x="597" d="M149 692V206Q149 127 185 93T298 58Q376 58 411 92T447 206V692H524V211Q524 97 469 44T298 -10Q183 -10 128 43T73 211V692H149ZM218 785L196 840L402 936L426 871L218 785Z" />
<glyph unicode="&#xdb;" glyph-name="Ucircumflex" horiz-adv-x="597" d="M149 692V206Q149 127 185 93T298 58Q376 58 411 92T447 206V692H524V211Q524 97 469 44T298 -10Q183 -10 128 43T73 211V692H149ZM74 872L205 1010H246L378 872H305L226 953L147 872H74Z" />
<glyph unicode="&#xdc;" glyph-name="Udieresis" horiz-adv-x="597" d="M170 816V909H239V816H170ZM360 816V909H427V816H360ZM149 692V206Q149 127 185 93T298 58Q376 58 411 92T447 206V692H524V211Q524 97 469 44T298 -10Q183 -10 128 43T73 211V692H149Z" />
<glyph unicode="&#xdd;" glyph-name="Yacute" horiz-adv-x="498" d="M186 785L164 840L370 936L394 871L186 785ZM486 692L286 290V0H213V290L10 692H93L249 373L404 692H486Z" />
<glyph unicode="&#xde;" glyph-name="Thorn" horiz-adv-x="554" d="M305 188Q373 188 406 233T439 355Q439 425 407 470T305 516H152V188H305ZM306 120H152V0H77V696H152V585H306Q404 585 461 528T519 355Q519 244 465 182T306 120Z" />
<glyph unicode="&#xdf;" glyph-name="germandbls" horiz-adv-x="533" d="M137 0H66V537Q66 646 109 687T251 728Q351 728 392 695T434 585Q434 532 418 505T358 456Q325 438 313 426T301 396Q301 376 316 362T377 324Q449 286 475 256T501 166Q501 72 460 31T328
-10Q306 -10 275 -7T224 -1L205 2L208 60Q288 55 314 55Q378 55 403 80T429 162Q429 200 411 219T330 272Q276 300 253 325T229 391Q229 431 244 452T304 497Q337 515 349 533T362 582Q362 629 338 646T251 663Q191 663 164 638T137 538V0Z" />
<glyph unicode="&#xe0;" glyph-name="agrave" horiz-adv-x="493" d="M207 -10Q120 -10 84 51T47 240Q47 290 52 329T70 403T106 461T164 497T247 510Q272 510 317 506T394 498L427 493V123L433 1L358 -2Q353 44 353 84Q351 80 347 74T328 52T298 23T258 0T207
-10ZM256 445Q179 445 151 396T123 240Q123 149 144 102T222 55Q256 55 288 81T336 133L352 159V436Q283 445 256 445ZM162 747L368 653L348 599L139 685L162 747Z" />
<glyph unicode="&#xe1;" glyph-name="aacute" horiz-adv-x="493" d="M207 -10Q120 -10 84 51T47 240Q47 290 52 329T70 403T106 461T164 497T247 510Q272 510 317 506T394 498L427 493V123L433 1L358 -2Q353 44 353 84Q351 80 347 74T328 52T298 23T258 0T207
-10ZM256 445Q179 445 151 396T123 240Q123 149 144 102T222 55Q256 55 288 81T336 133L352 159V436Q283 445 256 445ZM201 596L180 652L386 748L409 682L201 596Z" />
<glyph unicode="&#xe2;" glyph-name="acircumflex" horiz-adv-x="493" d="M109 587L230 738H284L406 587H326L258 672L188 587H109ZM207 -10Q120 -10 84 51T47 240Q47 290 52 329T70 403T106 461T164 497T247 510Q272 510 317 506T394 498L427 493V123L433 1L358
-2Q353 44 353 84Q351 80 347 74T328 52T298 23T258 0T207 -10ZM256 445Q179 445 151 396T123 240Q123 149 144 102T222 55Q256 55 288 81T336 133L352 159V436Q283 445 256 445Z" />
<glyph unicode="&#xe3;" glyph-name="atilde" horiz-adv-x="493" d="M207 -10Q120 -10 84 51T47 240Q47 290 52 329T70 403T106 461T164 497T247 510Q272 510 317 506T394 498L427 493V123L433 1L358 -2Q353 44 353 84Q351 80 347 74T328 52T298 23T258 0T207
-10ZM256 445Q179 445 151 396T123 240Q123 149 144 102T222 55Q256 55 288 81T336 133L352 159V436Q283 445 256 445ZM407 719L422 666Q376 614 341 614Q318 614 267 638T202 662Q191 662 174 652T144 630L131 620L117 673Q166 728 204 728Q227 728 279 704T342
680Q351 680 367 690T396 710L407 719Z" />
<glyph unicode="&#xe4;" glyph-name="adieresis" horiz-adv-x="493" d="M122 620V713H191V620H122ZM312 620V713H379V620H312ZM207 -10Q120 -10 84 51T47 240Q47 290 52 329T70 403T106 461T164 497T247 510Q272 510 317 506T394 498L427 493V123L433 1L358 -2Q353
44 353 84Q351 80 347 74T328 52T298 23T258 0T207 -10ZM256 445Q179 445 151 396T123 240Q123 149 144 102T222 55Q256 55 288 81T336 133L352 159V436Q283 445 256 445Z" />
<glyph unicode="&#xe5;" glyph-name="aring" horiz-adv-x="493" d="M207 -10Q120 -10 84 51T47 240Q47 290 52 329T70 403T106 461T164 497T247 510Q272 510 317 506T394 498L427 493V123L433 1L358 -2Q353 44 353 84Q351 80 347 74T328 52T298 23T258 0T207 -10ZM256
445Q179 445 151 396T123 240Q123 149 144 102T222 55Q256 55 288 81T336 133L352 159V436Q283 445 256 445ZM176 662Q176 705 201 732T268 760Q308 760 332 733T357 662Q357 617 333 591T268 564Q225 564 201 590T176 662ZM221 682T221 662T234 628T268 613Q287
613 299 627T312 662T300 695T268 709Q248 709 235 696Z" />
<glyph unicode="&#xe6;" glyph-name="ae" horiz-adv-x="750" d="M518 60Q548 60 590 62T660 66L688 69L690 6Q593 -10 514 -10Q419 -10 373 45Q256 -10 169 -10Q105 -10 72 33T38 143Q38 208 65 241T148 286Q207 299 324 307Q324 329 324 338T322 366T315 395T302
416T280 432T246 437Q215 437 170 435T96 429L66 426L63 495Q174 510 246 510Q346 510 375 435Q422 510 522 510Q662 510 696 379Q707 335 707 267V217H397Q397 172 406 139Q429 60 518 60ZM178 57Q245 57 346 92Q323 144 323 247Q266 243 188 232Q148 226 129
206T110 146Q110 110 126 84T178 57ZM397 280H636Q636 350 619 387Q593 442 520 442Q397 442 397 280Z" />
<glyph unicode="&#xe7;" glyph-name="ccedilla" horiz-adv-x="399" d="M241 510Q264 510 294 506T343 498L362 495L359 435Q292 444 256 444Q181 444 152 400T123 257Q123 152 149 104T256 55L359 63L362 4Q291 -10 240 -10H232V-45H240Q338 -45 338 -124Q338
-168 314 -189T249 -211Q231 -211 211 -210T179 -206L168 -204L171 -153Q208 -156 233 -156Q275 -156 275 -120Q275 -88 233 -88H193V-6Q109 7 78 70T46 257Q46 389 92 449T241 510Z" />
<glyph unicode="&#xe8;" glyph-name="egrave" horiz-adv-x="453" d="M238 55Q270 55 308 59T370 69L393 74L397 19Q325 -9 234 -9Q135 -9 90 50T45 242Q45 509 248 509Q415 509 415 375Q415 288 359 256T173 223H121V208Q121 55 238 55ZM122 281H172Q266 281 303
300T341 374Q341 447 248 447Q124 447 122 281ZM131 747L337 653L317 599L108 685L131 747Z" />
<glyph unicode="&#xe9;" glyph-name="eacute" horiz-adv-x="453" d="M238 55Q270 55 308 59T370 69L393 74L397 19Q325 -9 234 -9Q135 -9 90 50T45 242Q45 509 248 509Q415 509 415 375Q415 288 359 256T173 223H121V208Q121 55 238 55ZM122 281H172Q266 281 303
300T341 374Q341 447 248 447Q124 447 122 281ZM158 596L137 652L343 748L366 682L158 596Z" />
<glyph unicode="&#xea;" glyph-name="ecircumflex" horiz-adv-x="453" d="M94 587L214 738H268L390 587H311L242 672L173 587H94ZM238 55Q270 55 308 59T370 69L393 74L397 19Q325 -9 234 -9Q135 -9 90 50T45 242Q45 509 248 509Q415 509 415 375Q415 288 359
256T173 223H121V208Q121 55 238 55ZM122 281H172Q266 281 303 300T341 374Q341 447 248 447Q124 447 122 281Z" />
<glyph unicode="&#xeb;" glyph-name="edieresis" horiz-adv-x="453" d="M119 620V713H188V620H119ZM309 620V713H376V620H309ZM238 55Q270 55 308 59T370 69L393 74L397 19Q325 -9 234 -9Q135 -9 90 50T45 242Q45 509 248 509Q415 509 415 375Q415 288 359 256T173
223H121V208Q121 55 238 55ZM122 281H172Q266 281 303 300T341 374Q341 447 248 447Q124 447 122 281Z" />
<glyph unicode="&#xec;" glyph-name="igrave" horiz-adv-x="207" d="M66 0V500H141V0H66ZM-41 747L165 653L145 599L-64 685L-41 747Z" />
<glyph unicode="&#xed;" glyph-name="iacute" horiz-adv-x="207" d="M66 0V500H141V0H66ZM71 596L50 652L256 748L279 682L71 596Z" />
<glyph unicode="&#xee;" glyph-name="icircumflex" horiz-adv-x="207" d="M-44 587L76 738H131L252 587H173L104 672L35 587H-44ZM66 0V500H141V0H66Z" />
<glyph unicode="&#xef;" glyph-name="idieresis" horiz-adv-x="207" d="M-24 620V713H44V620H-24ZM165 620V713H232V620H165ZM66 0V500H141V0H66Z" />
<glyph unicode="&#xf0;" glyph-name="eth" horiz-adv-x="515" d="M251 596L150 519L116 565L191 622Q141 640 89 654L104 721Q191 704 259 674L348 741L383 696L315 644Q467 549 467 358Q467 160 417 76T250 -9Q147 -9 94 48T40 209Q40 315 91 373T237 431Q267
431 306 423T369 405L393 396Q386 465 354 512T251 596ZM241 360Q181 360 149 320T116 208Q116 143 150 104T250 65Q327 65 359 122T393 324Q387 327 367 334T309 351T241 360Z" />
<glyph unicode="&#xf1;" glyph-name="ntilde" horiz-adv-x="501" d="M66 0H141V352Q144 356 148 362T167 384T196 412T231 435T271 445Q321 445 343 408T365 290V0H439V311Q439 510 286 510Q262 510 239 501T199 480T169 456T148 434L141 425L140 500H66V0ZM400
719L415 666Q369 614 334 614Q311 614 260 638T195 662Q184 662 167 652T136 630L124 620L110 673Q159 728 197 728Q220 728 272 704T335 680Q344 680 360 690T388 710L400 719Z" />
<glyph unicode="&#xf2;" glyph-name="ograve" horiz-adv-x="486" d="M133 510T243 510T396 447T439 255Q439 203 435 166T419 94T386 38T329 3T243 -10T157 3T100 37T67 94T51 166T47 255Q47 383 90 446ZM210 55T243 55T299 64T336 89T356 132T365 186T367 255Q367
355 341 400T243 445T146 400T119 255Q119 213 121 187T130 133T150 90T186 65ZM131 747L337 653L317 599L108 685L131 747Z" />
<glyph unicode="&#xf3;" glyph-name="oacute" horiz-adv-x="486" d="M133 510T243 510T396 447T439 255Q439 203 435 166T419 94T386 38T329 3T243 -10T157 3T100 37T67 94T51 166T47 255Q47 383 90 446ZM210 55T243 55T299 64T336 89T356 132T365 186T367 255Q367
355 341 400T243 445T146 400T119 255Q119 213 121 187T130 133T150 90T186 65ZM171 596L150 652L356 748L379 682L171 596Z" />
<glyph unicode="&#xf4;" glyph-name="ocircumflex" horiz-adv-x="486" d="M95 587L215 738H270L391 587H312L243 672L174 587H95ZM133 510T243 510T396 447T439 255Q439 203 435 166T419 94T386 38T329 3T243 -10T157 3T100 37T67 94T51 166T47 255Q47 383 90
446ZM210 55T243 55T299 64T336 89T356 132T365 186T367 255Q367 355 341 400T243 445T146 400T119 255Q119 213 121 187T130 133T150 90T186 65Z" />
<glyph unicode="&#xf5;" glyph-name="otilde" horiz-adv-x="486" d="M133 510T243 510T396 447T439 255Q439 203 435 166T419 94T386 38T329 3T243 -10T157 3T100 37T67 94T51 166T47 255Q47 383 90 446ZM210 55T243 55T299 64T336 89T356 132T365 186T367 255Q367
355 341 400T243 445T146 400T119 255Q119 213 121 187T130 133T150 90T186 65ZM381 719L396 666Q350 614 315 614Q292 614 241 638T176 662Q165 662 148 652T118 630L105 620L91 673Q140 728 178 728Q201 728 253 704T316 680Q325 680 341 690T370 710L381 719Z"
/>
<glyph unicode="&#xf6;" glyph-name="odieresis" horiz-adv-x="486" d="M133 510T243 510T396 447T439 255Q439 203 435 166T419 94T386 38T329 3T243 -10T157 3T100 37T67 94T51 166T47 255Q47 383 90 446ZM210 55T243 55T299 64T336 89T356 132T365 186T367
255Q367 355 341 400T243 445T146 400T119 255Q119 213 121 187T130 133T150 90T186 65ZM119 620V713H181V620H119ZM302 620V713H362V620H302Z" />
<glyph unicode="&#xf7;" glyph-name="divide" horiz-adv-x="560" d="M120 281V354H177V402H383V354H439V281H120ZM242 30V131H317V30H242Z" />
<glyph unicode="&#xf8;" glyph-name="oslash" horiz-adv-x="486" d="M243 511Q280 511 312 503L351 605L400 586L358 482Q439 430 439 256Q439 204 435 167T419 95T386 39T329 4T243 -9Q202 -9 170 0L129 -111L81 -93L125 19Q79 48 63 105T47 256Q47 384 90 447T243
511ZM243 56Q276 56 299 65T336 90T356 133T365 187T367 256Q367 373 331 414L262 241L194 62Q215 56 243 56ZM152 88L219 258L288 440Q268 446 243 446Q172 446 146 401T119 256Q119 127 152 88Z" />
<glyph unicode="&#xf9;" glyph-name="ugrave" horiz-adv-x="502" d="M127 747L333 653L313 599L104 685L127 747ZM361 500H435V0H362L361 75Q359 72 354 66T334 46T303 20T264 -1T216 -10Q135 -10 99 40T62 193V500H137V210Q137 128 158 92T231 55Q261 55 293
78T344 125L361 148V500Z" />
<glyph unicode="&#xfa;" glyph-name="uacute" horiz-adv-x="502" d="M361 500H435V0H362L361 75Q359 72 354 66T334 46T303 20T264 -1T216 -10Q135 -10 99 40T62 193V500H137V210Q137 128 158 92T231 55Q261 55 293 78T344 125L361 148V500ZM180 596L159 652L365
748L388 682L180 596Z" />
<glyph unicode="&#xfb;" glyph-name="ucircumflex" horiz-adv-x="502" d="M103 587L223 738H277L399 587H320L251 672L182 587H103ZM361 500H435V0H362L361 75Q359 72 354 66T334 46T303 20T264 -1T216 -10Q135 -10 99 40T62 193V500H137V210Q137 128 158 92T231
55Q261 55 293 78T344 125L361 148V500Z" />
<glyph unicode="&#xfc;" glyph-name="udieresis" horiz-adv-x="502" d="M122 620V713H191V620H122ZM312 620V713H379V620H312ZM361 500H435V0H362L361 75Q359 72 354 66T334 46T303 20T264 -1T216 -10Q135 -10 99 40T62 193V500H137V210Q137 128 158 92T231 55Q261
55 293 78T344 125L361 148V500Z" />
<glyph unicode="&#xfd;" glyph-name="yacute" horiz-adv-x="448" d="M24 500H98L208 64H239L351 500H425L233 -222H161L224 0H155L24 500ZM163 596L142 652L348 748L371 682L163 596Z" />
<glyph unicode="&#xfe;" glyph-name="thorn" horiz-adv-x="493" d="M140 362V68Q208 58 238 58Q311 58 340 105T370 251Q370 302 362 341T328 411T263 441Q236 441 206 422T158 382L140 362ZM275 510Q447 510 447 251Q447 115 398 53T238 -10L140 -3V-220H66V716H140V437Q142
439 155 450T179 469T206 488T240 504T275 510Z" />
<glyph unicode="&#xff;" glyph-name="ydieresis" horiz-adv-x="448" d="M96 620V713H165V620H96ZM285 620V713H353V620H285ZM24 500H98L208 64H239L351 500H425L233 -222H161L224 0H155L24 500Z" />
</font>
</defs>
</svg>
